<?xml version="1.0" encoding="UTF-8" standalone="no"?>
<svg
   version="1.1"
   width="771.61853"
   height="108.92386"
   id="svg933"
   sodipodi:docname="desmos-graph.svg"
   xmlns:inkscape="http://www.inkscape.org/namespaces/inkscape"
   xmlns:sodipodi="http://sodipodi.sourceforge.net/DTD/sodipodi-0.dtd"
   xmlns="http://www.w3.org/2000/svg"
   xmlns:svg="http://www.w3.org/2000/svg">
  <sodipodi:namedview
     id="namedview935"
     pagecolor="#ffffff"
     bordercolor="#666666"
     borderopacity="1.0"
     inkscape:showpageshadow="2"
     inkscape:pageopacity="0.0"
     inkscape:pagecheckerboard="0"
     inkscape:deskcolor="#d1d1d1"
     showgrid="false" />
  <defs
     id="defs906" />
  <g
     transform="matrix(2,0,0,2,679.84819,-239.47715)"
     id="g931">
    <g
       id="expressions-723ac151"
       transform="translate(-342.99973,-59.610441)">
      <g
         id="sketch-723ac151">
        <title
           id="title920">Expression 1</title>
        <path
           fill="#000000"
           stroke="none"
           paint-order="stroke fill markers"
           d=""
           fill-opacity="0.4"
           id="path922" />
        <g
           id="g926">
          <path
             fill="none"
             stroke="#000000"
             class="dcg-svg-curve"
             paint-order="fill stroke markers"
             d="m 4.8256338,206.55381 v 0 l 4.8718584,-9.50671 2.6360768,-4.65223 2.147915,-3.35207 1.952649,-2.61849 1.757385,-1.95452 1.659752,-1.46116 1.659752,-1.06204 1.464488,-0.59113 1.366854,-0.25169 1.269223,0.0283 1.269222,0.28048 1.366855,0.58079 1.464487,0.93548 1.659752,1.43641 1.757385,1.93026 1.855017,2.4543 2.050282,3.14883 2.34318,4.05753 2.928974,5.55796 8.982188,17.39043 2.34318,3.8705 2.050282,2.9427 1.855017,2.23824 1.659752,1.62052 1.659752,1.2309 1.56212,0.78383 1.366855,0.37816 1.269222,0.0899 1.269222,-0.16271 1.366855,-0.45578 1.464487,-0.80526 1.56212,-1.20845 1.659752,-1.65922 1.757385,-2.14739 1.952649,-2.80809 2.147915,-3.52555 2.538445,-4.62257 3.710034,-7.27777 5.272154,-10.3095 2.636077,-4.65534 2.147914,-3.35546 1.95265,-2.62213 1.757385,-1.95822 1.659752,-1.46492 1.659755,-1.06602 1.46448,-0.59475 1.36686,-0.25514 1.26922,0.0251 1.26922,0.27729 1.36686,0.57741 1.46449,0.93197 1.65975,1.43263 1.75738,1.92655 1.85502,2.45078 2.05028,3.14551 2.34318,4.05458 2.92898,5.55566 8.98218,17.3938 2.34318,3.87383 2.05029,2.9463 1.85501,2.24198 1.65975,1.62417 1.65976,1.2348 1.56212,0.78765 1.36685,0.38158 1.26922,0.0931 1.26923,-0.1595 1.36685,-0.45238 1.46449,-0.8017 1.56212,-1.2048 1.65975,-1.65558 1.75738,-2.14388 1.95265,-2.80466 2.14792,-3.52245 2.53844,-4.61994 3.71004,-7.27611 5.36978,-10.49282 2.63608,-4.63954 2.14792,-3.33829 1.95265,-2.60361 1.75738,-1.93953 1.65975,-1.44586 1.65975,-1.0459 1.46449,-0.5764 1.36686,-0.23774 1.26922,0.0414 1.26922,0.29342 1.36686,0.59448 1.46448,0.9497 1.65975,1.45174 1.75739,1.94529 1.85502,2.46852 2.05028,3.16223 2.34318,4.06943 2.92897,5.56717 8.88456,17.20571 2.34318,3.87715 2.05028,2.9499 1.85502,2.24571 1.65975,1.62783 1.65975,1.23869 1.56212,0.79147 1.36686,0.38501 1.26922,0.0963 1.26922,-0.1563 1.36686,-0.44896 1.46448,-0.79814 1.56212,-1.20116 1.65975,-1.65194 1.75739,-2.14036 1.95265,-2.80123 2.14791,-3.51935 2.53845,-4.6173 3.71003,-7.27444 5.36979,-10.49518 2.63608,-4.64269 2.14791,-3.34169 1.95265,-2.60729 1.75738,-1.94323 1.65976,-1.44963 1.65975,-1.04988 1.46449,-0.58004 1.36685,-0.24118 1.26922,0.0382 1.26923,0.29024 1.36685,0.5911 1.46449,0.9462 1.65975,1.44796 1.75738,1.94159 1.85502,2.46502 2.05028,3.15893 2.34318,4.06651 2.92898,5.56491 8.88455,17.20908 2.34318,3.88046 2.05028,2.95349 1.85502,2.24944 1.65975,1.63148 1.65976,1.24258 1.56212,0.79529 1.36685,0.38843 1.26922,0.0995 1.26923,-0.1531 1.36685,-0.44556 1.46449,-0.79457 1.56212,-1.19751 1.65975,-1.64831 1.75738,-2.13683 1.95265,-2.79779 2.14792,-3.51624 2.53844,-4.61465 3.71004,-7.27277 5.36978,-10.49754 2.63608,-4.64581 2.14791,-3.3451 1.95265,-2.61095 1.75739,-1.94693 1.65975,-1.45341 1.65975,-1.05386 1.46449,-0.58367 1.36686,-0.24462 1.26922,0.035 1.26922,0.28704 1.36685,0.58772 1.46449,0.9427 1.65975,1.44418 1.75739,1.93789 1.85502,2.46151 2.05028,3.15564 2.34318,4.06358 2.92897,5.56264 8.88456,17.21241 2.34318,3.88376 2.05028,2.95709 1.85502,2.25316 1.65975,1.63513 1.65975,1.24648 1.56212,0.79911 1.36686,0.39184 1.26922,0.1027 1.26922,-0.1499 0.57603,-0.15105"
             stroke-linecap="round"
             stroke-linejoin="round"
             stroke-miterlimit="10"
             stroke-width="3.5"
             stroke-opacity="0.9"
             stroke-dasharray="none"
             id="path924" />
        </g>
      </g>
    </g>
  </g>
</svg>
