<?xml version="1.0" encoding="UTF-8" standalone="no"?>
<!-- Created with Inkscape (http://www.inkscape.org/) -->

<svg
   width="210mm"
   height="297mm"
   viewBox="0 0 210 297"
   version="1.1"
   id="svg5"
   xml:space="preserve"
   inkscape:version="1.2 (dc2aedaf03, 2022-05-15)"
   sodipodi:docname="bebek.svg"
   inkscape:export-filename="bebek.png"
   inkscape:export-xdpi="96"
   inkscape:export-ydpi="96"
   xmlns:inkscape="http://www.inkscape.org/namespaces/inkscape"
   xmlns:sodipodi="http://sodipodi.sourceforge.net/DTD/sodipodi-0.dtd"
   xmlns="http://www.w3.org/2000/svg"
   xmlns:svg="http://www.w3.org/2000/svg"><sodipodi:namedview
     id="namedview7"
     pagecolor="#ffffff"
     bordercolor="#666666"
     borderopacity="1.0"
     inkscape:showpageshadow="2"
     inkscape:pageopacity="0.0"
     inkscape:pagecheckerboard="0"
     inkscape:deskcolor="#d1d1d1"
     inkscape:document-units="mm"
     showgrid="false"
     inkscape:zoom="0.4204826"
     inkscape:cx="219.98532"
     inkscape:cy="432.83598"
     inkscape:window-width="1366"
     inkscape:window-height="715"
     inkscape:window-x="-8"
     inkscape:window-y="-8"
     inkscape:window-maximized="1"
     inkscape:current-layer="layer1" /><defs
     id="defs2" /><g
     inkscape:label="Layer 1"
     inkscape:groupmode="layer"
     id="layer1"><g
       id="g1490"
       style="stroke-width:3.8;stroke-dasharray:none"
       transform="translate(130.77899,-1.517727)"><path
         id="rect1065"
         style="opacity:1;fill:#f26d33;fill-opacity:1;stroke:#000000;stroke-width:3.8;stroke-linecap:round;stroke-linejoin:round;stroke-dasharray:none;stroke-opacity:1"
         d="m -92.102157,130.58928 c 13.775329,-4.19553 30.255777,-18.84086 30.255777,-18.84086 v 26.62728 c -20.711131,-1.91638 -35.077682,-6.31782 -30.255777,-7.78642 z"
         sodipodi:nodetypes="sccs"
         inkscape:label="rect1065" /><path
         id="path354"
         style="fill:#ffe266;fill-opacity:1;stroke:#000000;stroke-width:3.8;stroke-linecap:round;stroke-linejoin:round;stroke-dasharray:none;stroke-opacity:1"
         d="m -50.399616,99.194474 c -13.198349,-3e-5 -23.897746,10.558466 -23.897766,23.583056 0.0062,7.56676 3.691379,14.67104 9.907922,19.10064 -3.016211,4.2819 -10.026497,16.31402 -6.797518,32.1076 2.628807,12.85802 16.556361,26.85521 29.680359,26.85521 h 52.742003 c 12.334325,0 20.26837,-10.71697 25.13903,-20.33054 4.97866,-9.82673 7.589273,-23.79301 1.55753,-33.01091 -8.561847,-13.08448 -19.19469,-13.45964 -19.19469,-13.45964 0,0 2.0111,8.81618 -0.46664,12.0003 -2.63564,3.38702 -7.66982,4.70157 -11.9610304,4.76457 -14.2248302,-0.76416 -25.5497276,-13.63449 -38.5247796,-12.75013 3.682167,-4.26139 5.707437,-9.67682 5.71335,-15.2771 -2e-5,-13.02459 -10.69942,-23.583088 -23.89777,-23.583056 z"
         sodipodi:nodetypes="cccssssscscccc" /><path
         id="rect1062"
         style="opacity:1;fill:#f26d33;fill-opacity:1;stroke:#000000;stroke-width:3.8;stroke-linecap:round;stroke-linejoin:round;stroke-dasharray:none;stroke-opacity:1"
         d="m -34.26023,155.95075 c 13.970724,-10.4389 45.383664,10.0111 45.383664,10.0111 0,0 -28.1587,22.59421 -43.603913,16.24024 -15.445207,-6.35398 -3.918868,-24.653 -1.779751,-26.25134 z"
         sodipodi:nodetypes="sczs" /><circle
         style="opacity:1;fill:#000000;fill-opacity:1;stroke:#000000;stroke-width:2.78821;stroke-linecap:round;stroke-linejoin:round;stroke-dasharray:none;stroke-opacity:1"
         id="path1546"
         cx="-58.983582"
         cy="117.43432"
         r="3.5911546" /></g></g></svg>
