<svg id="svg" version="1.1" xmlns="http://www.w3.org/2000/svg" xmlns:xlink="http://www.w3.org/1999/xlink" width="400" height="225" viewBox="0, 0, 400,225"><g id="svgg"><path id="path0" d="M345.296 56.042 C 345.296 58.276,345.326 59.190,345.364 58.073 C 345.401 56.956,345.401 55.128,345.364 54.010 C 345.326 52.893,345.296 53.807,345.296 56.042 M343.421 56.250 C 343.421 58.484,343.451 59.398,343.489 58.281 C 343.526 57.164,343.526 55.336,343.489 54.219 C 343.451 53.102,343.421 54.016,343.421 56.250 M214.261 57.344 L 213.438 58.229 214.323 57.406 C 214.810 56.953,215.208 56.554,215.208 56.520 C 215.208 56.363,215.027 56.520,214.261 57.344 M215.091 58.385 L 214.479 59.063 215.156 58.451 C 215.787 57.880,215.929 57.708,215.768 57.708 C 215.732 57.708,215.428 58.013,215.091 58.385 M73.694 67.552 C 73.559 68.438,73.709 68.592,73.879 67.742 C 74.015 67.062,74.262 66.888,74.445 67.344 C 74.508 67.499,74.557 67.457,74.567 67.240 C 74.599 66.530,73.807 66.814,73.694 67.552 M74.583 67.786 C 74.583 68.011,75.411 69.583,75.529 69.583 C 75.587 69.583,75.433 69.185,75.187 68.698 C 74.704 67.740,74.583 67.558,74.583 67.786 M73.159 69.071 C 72.810 69.838,72.876 70.001,73.254 69.304 C 73.430 68.979,73.535 68.674,73.488 68.627 C 73.440 68.579,73.292 68.779,73.159 69.071 M76.246 71.033 C 76.756 72.034,76.756 72.029,76.302 72.148 C 76.028 72.220,76.054 72.249,76.406 72.267 C 76.664 72.281,76.875 72.194,76.875 72.075 C 76.875 71.800,76.068 70.208,75.929 70.208 C 75.872 70.208,76.014 70.580,76.246 71.033 M373.958 70.402 C 373.958 70.509,373.794 70.637,373.594 70.686 C 373.393 70.735,373.464 70.730,373.750 70.674 C 374.036 70.618,375.255 70.507,376.458 70.428 L 378.646 70.285 376.302 70.246 C 374.968 70.225,373.958 70.292,373.958 70.402 M337.963 74.219 L 337.917 77.708 338.490 77.680 C 338.973 77.656,338.990 77.638,338.599 77.562 C 338.145 77.474,338.134 77.397,338.072 74.101 L 338.010 70.729 337.963 74.219 M72.117 71.571 C 71.768 72.338,71.835 72.501,72.212 71.804 C 72.388 71.479,72.494 71.174,72.446 71.127 C 72.398 71.079,72.250 71.279,72.117 71.571 M336.127 74.583 C 336.127 76.589,336.159 77.409,336.197 76.406 C 336.235 75.404,336.235 73.763,336.197 72.760 C 336.159 71.758,336.127 72.578,336.127 74.583 M375.433 71.615 C 375.442 71.815,375.495 71.867,375.551 71.730 C 375.623 71.552,375.835 71.592,376.297 71.873 C 376.906 72.243,378.542 71.859,378.542 71.346 C 378.542 71.288,378.182 71.425,377.742 71.649 C 376.951 72.053,376.936 72.053,376.279 71.654 C 375.466 71.159,375.412 71.157,375.433 71.615 M74.688 72.500 C 74.617 72.615,74.658 72.708,74.778 72.708 C 74.931 72.708,75.015 79.282,75.052 94.115 L 75.106 115.521 75.157 94.028 C 75.198 77.067,75.263 72.513,75.469 72.430 C 75.612 72.372,75.524 72.317,75.273 72.308 C 75.022 72.299,74.758 72.385,74.688 72.500 M71.598 72.795 C 71.501 73.048,71.603 73.121,72.038 73.109 C 72.371 73.099,72.475 73.043,72.292 72.973 C 72.120 72.908,71.922 72.767,71.852 72.660 C 71.782 72.553,71.668 72.614,71.598 72.795 M365.938 73.958 C 365.479 74.040,365.257 74.121,365.444 74.137 C 365.632 74.153,365.831 74.331,365.888 74.531 C 365.945 74.732,366.277 75.669,366.627 76.614 C 367.141 78.005,367.196 78.296,366.912 78.144 C 364.935 77.081,361.693 75.043,361.804 74.933 C 362.011 74.726,361.757 74.757,359.688 75.197 C 358.656 75.416,358.050 75.602,358.339 75.610 C 358.629 75.618,360.614 76.645,362.750 77.891 C 365.717 79.622,366.759 80.133,367.167 80.055 C 367.795 79.935,367.972 80.282,368.492 82.655 C 368.863 84.347,368.863 84.346,367.820 84.582 C 367.178 84.726,367.102 84.707,367.312 84.454 C 367.618 84.086,368.371 84.587,361.563 80.636 C 358.354 78.774,355.380 77.026,354.954 76.752 C 354.233 76.287,352.072 76.400,351.542 76.930 C 351.496 76.976,354.412 78.729,358.020 80.826 C 365.378 85.103,365.513 85.189,364.896 85.208 C 364.230 85.229,364.918 85.538,366.250 85.817 C 369.333 86.462,369.453 86.658,368.292 89.158 L 367.852 90.104 367.721 89.479 C 367.582 88.819,367.531 88.805,366.114 89.048 C 365.370 89.176,365.254 89.146,365.281 88.836 C 365.304 88.569,362.913 87.077,356.088 83.100 L 346.864 77.724 345.672 77.954 C 345.016 78.080,344.416 78.241,344.339 78.311 C 344.261 78.380,348.458 80.918,353.664 83.950 C 362.252 88.951,363.087 89.485,362.674 89.706 C 362.273 89.920,362.464 90.003,364.287 90.405 C 367.123 91.031,367.065 91.006,366.563 91.392 C 365.947 91.866,364.119 92.659,363.277 92.817 C 362.553 92.953,362.541 92.944,362.404 92.131 L 362.265 91.307 361.023 91.566 C 359.940 91.792,359.814 91.787,360.034 91.522 C 360.214 91.304,360.221 91.178,360.056 91.078 C 359.930 91.001,355.324 88.313,349.819 85.104 C 341.602 80.314,339.893 79.243,340.270 79.117 C 340.724 78.966,340.540 78.993,337.970 79.458 L 336.670 79.693 346.947 85.684 C 358.358 92.337,358.260 92.275,357.517 92.285 C 356.695 92.296,357.222 92.582,358.711 92.932 L 360.104 93.260 358.791 93.422 C 358.069 93.512,356.552 93.519,355.421 93.438 L 353.363 93.290 353.222 92.459 C 353.071 91.562,353.026 91.553,351.108 92.012 C 350.746 92.099,350.674 92.044,350.753 91.738 C 350.834 91.421,349.260 90.427,341.753 86.054 C 334.766 81.984,332.745 80.718,333.046 80.600 C 333.697 80.344,333.115 80.404,331.243 80.787 L 329.465 81.151 339.105 86.770 C 350.140 93.202,350.026 93.085,344.384 92.165 C 340.642 91.554,340.473 91.491,340.377 90.662 C 340.309 90.073,340.200 90.046,338.870 90.296 C 338.261 90.410,338.173 90.377,338.250 90.058 C 338.322 89.762,337.048 88.938,331.886 85.945 C 327.570 83.442,325.516 82.143,325.685 82.021 C 325.833 81.915,325.635 81.902,325.208 81.990 C 324.807 82.072,323.870 82.253,323.125 82.393 C 322.380 82.532,321.965 82.684,322.202 82.730 C 322.686 82.822,335.456 90.238,335.338 90.357 C 335.269 90.426,331.942 89.706,326.927 88.537 C 325.605 88.229,325.000 87.994,325.000 87.790 C 325.000 87.576,324.853 87.529,324.477 87.623 C 324.081 87.723,323.981 87.684,324.065 87.463 C 324.143 87.261,323.253 86.635,321.158 85.417 C 319.243 84.303,318.232 83.603,318.393 83.501 C 318.532 83.412,318.552 83.340,318.438 83.340 C 317.997 83.341,314.500 84.138,314.877 84.152 C 315.243 84.165,319.436 86.467,319.315 86.588 C 319.202 86.701,312.389 84.920,312.273 84.747 C 312.206 84.646,311.301 84.736,310.252 84.948 L 308.352 85.331 318.603 87.870 C 358.702 97.800,370.691 97.209,370.154 85.330 C 370.021 82.396,367.558 73.637,366.906 73.780 C 366.832 73.796,366.396 73.876,365.938 73.958 M253.297 74.785 C 249.367 75.614,246.769 77.728,246.148 80.604 C 245.899 81.756,245.703 84.560,245.879 84.451 C 245.969 84.396,246.042 84.601,246.042 84.908 C 246.042 85.431,249.836 94.680,250.214 95.079 C 250.310 95.180,250.029 94.290,249.591 93.100 C 249.153 91.911,248.824 90.905,248.861 90.866 C 248.897 90.827,250.221 91.554,251.802 92.481 C 253.865 93.691,254.531 94.171,254.161 94.183 C 253.878 94.192,253.740 94.237,253.854 94.284 C 253.969 94.330,254.906 94.188,255.938 93.969 C 256.969 93.750,257.698 93.564,257.558 93.556 C 257.418 93.548,255.554 92.509,253.415 91.248 C 251.276 89.986,249.421 88.966,249.294 88.981 C 248.314 89.096,248.206 88.979,247.862 87.448 C 247.219 84.585,247.219 84.584,247.640 84.580 C 247.849 84.579,248.223 84.523,248.470 84.457 C 248.810 84.366,248.911 84.425,248.886 84.700 C 248.863 84.967,250.542 86.056,255.256 88.832 C 260.083 91.675,261.569 92.642,261.298 92.763 C 261.097 92.853,261.260 92.869,261.667 92.799 C 264.383 92.333,265.258 92.132,264.883 92.061 C 263.786 91.852,251.036 84.113,251.377 83.863 C 251.656 83.659,251.322 83.529,249.479 83.125 L 247.242 82.634 247.357 81.666 C 247.551 80.031,248.542 78.376,248.542 79.688 C 248.542 80.262,248.713 80.298,250.128 80.024 C 250.862 79.882,250.973 79.906,250.898 80.194 C 250.831 80.447,253.030 81.832,259.859 85.838 C 265.121 88.924,268.810 91.210,268.673 91.299 C 268.544 91.383,268.531 91.452,268.646 91.452 C 269.070 91.451,272.591 90.654,272.232 90.640 C 271.478 90.610,252.831 79.484,253.416 79.413 C 254.461 79.286,253.939 79.040,251.570 78.543 L 249.181 78.042 250.059 77.455 C 250.722 77.012,253.181 76.042,253.641 76.042 C 253.672 76.042,253.758 76.427,253.834 76.897 L 253.970 77.752 254.746 77.615 C 255.172 77.540,255.691 77.428,255.899 77.366 C 256.171 77.286,256.258 77.353,256.211 77.606 C 256.162 77.872,258.553 79.372,266.042 83.774 C 271.484 86.973,275.910 89.695,275.876 89.823 C 275.834 89.981,276.035 90.008,276.501 89.907 C 276.879 89.825,277.844 89.633,278.646 89.481 C 279.448 89.329,279.877 89.196,279.600 89.185 C 278.635 89.149,258.265 77.016,258.802 76.798 C 259.222 76.628,259.161 76.578,258.229 76.319 C 257.656 76.160,256.906 75.948,256.563 75.849 C 256.137 75.725,256.969 75.662,259.167 75.649 C 262.776 75.629,262.823 75.642,263.019 76.688 L 263.160 77.438 264.028 77.270 C 265.237 77.035,265.418 77.046,265.304 77.344 C 265.241 77.509,268.456 79.507,274.090 82.804 C 278.977 85.664,283.092 88.121,283.234 88.264 C 283.442 88.472,283.887 88.447,285.445 88.142 C 286.826 87.872,287.211 87.738,286.762 87.683 C 286.106 87.601,267.708 76.927,267.708 76.627 C 267.708 76.333,269.176 76.446,272.292 76.979 C 273.953 77.263,275.379 77.497,275.459 77.498 C 275.540 77.499,275.669 77.835,275.746 78.245 L 275.886 78.990 276.902 78.850 C 277.707 78.740,277.898 78.769,277.818 78.991 C 277.750 79.179,279.765 80.461,283.988 82.917 C 287.438 84.922,290.382 86.680,290.532 86.823 C 290.776 87.057,293.337 86.732,293.640 86.429 C 293.682 86.388,290.770 84.628,287.169 82.519 C 283.568 80.410,280.651 78.654,280.687 78.618 C 280.723 78.582,281.075 78.636,281.470 78.737 C 281.865 78.838,284.156 79.365,286.563 79.908 C 289.271 80.519,291.005 81.009,291.114 81.194 C 291.225 81.383,291.468 81.449,291.771 81.373 C 292.154 81.277,292.234 81.326,292.164 81.616 C 292.096 81.897,292.781 82.386,295.210 83.788 L 298.344 85.598 299.589 85.366 C 301.192 85.068,301.199 85.083,298.750 83.666 C 297.604 83.004,296.667 82.434,296.667 82.400 C 296.667 82.367,298.465 82.791,300.663 83.343 C 304.694 84.355,306.353 84.458,307.152 83.745 C 307.495 83.441,284.783 77.976,276.563 76.385 C 266.343 74.407,257.857 73.824,253.297 74.785 M97.076 80.365 L 95.938 81.563 97.135 80.424 C 98.248 79.366,98.429 79.167,98.274 79.167 C 98.242 79.167,97.703 79.706,97.076 80.365 M98.013 81.302 L 96.979 82.396 98.073 81.362 C 98.674 80.793,99.167 80.301,99.167 80.268 C 99.167 80.113,98.974 80.286,98.013 81.302 M112.292 81.524 C 112.292 81.559,112.596 81.864,112.969 82.201 L 113.646 82.813 113.034 82.135 C 112.464 81.504,112.292 81.363,112.292 81.524 M73.384 106.406 C 73.356 118.695,73.278 128.750,73.211 128.750 C 73.144 128.750,65.980 124.484,57.292 119.271 C 48.603 114.057,41.447 109.792,41.389 109.792 C 41.271 109.792,40.417 111.129,40.417 111.315 C 40.417 111.381,42.643 112.767,45.365 114.395 C 50.756 117.620,50.831 117.663,50.521 117.352 C 50.406 117.238,48.156 115.855,45.521 114.280 C 42.885 112.705,40.697 111.386,40.657 111.348 C 40.503 111.201,41.356 109.996,41.558 110.076 C 41.675 110.122,48.896 114.437,57.604 119.663 L 73.438 129.167 73.491 117.917 C 73.521 111.729,73.520 101.581,73.490 95.365 C 73.459 89.148,73.411 94.117,73.384 106.406 M299.880 91.354 C 299.881 93.875,299.911 94.878,299.947 93.582 C 299.984 92.287,299.984 90.224,299.947 88.999 C 299.910 87.773,299.880 88.833,299.880 91.354 M294.420 90.573 L 294.465 93.229 294.531 90.691 C 294.587 88.500,294.645 88.140,294.954 88.059 C 295.216 87.990,295.186 87.959,294.844 87.941 C 294.379 87.917,294.375 87.937,294.420 90.573 M292.452 90.052 C 292.554 93.168,292.635 93.476,292.672 90.885 C 292.692 89.482,292.638 88.333,292.552 88.333 C 292.466 88.333,292.421 89.106,292.452 90.052 M119.219 93.854 C 119.222 94.313,119.264 94.475,119.314 94.216 C 119.364 93.957,119.362 93.582,119.310 93.383 C 119.258 93.184,119.217 93.396,119.219 93.854 M292.553 94.479 C 292.555 94.938,292.598 95.100,292.647 94.841 C 292.697 94.582,292.695 94.207,292.643 94.008 C 292.591 93.809,292.550 94.021,292.553 94.479 M299.840 96.875 C 299.840 97.276,299.883 97.440,299.935 97.240 C 299.988 97.039,299.988 96.711,299.935 96.510 C 299.883 96.310,299.840 96.474,299.840 96.875 M249.444 97.182 C 249.959 97.697,251.087 101.289,250.662 101.061 C 248.536 99.918,245.447 97.954,245.571 97.825 C 245.658 97.734,245.401 97.734,245.000 97.824 C 244.599 97.914,243.661 98.102,242.917 98.241 C 242.172 98.381,241.809 98.505,242.111 98.518 C 242.412 98.531,244.410 99.575,246.551 100.838 C 248.691 102.100,250.532 103.079,250.640 103.012 C 251.377 102.556,253.046 106.666,252.372 107.277 C 251.947 107.663,250.873 107.706,250.967 107.334 C 251.037 107.058,249.685 106.173,244.884 103.351 C 241.489 101.356,238.584 99.596,238.428 99.440 C 238.189 99.201,237.842 99.218,236.211 99.548 C 234.744 99.844,234.431 99.961,234.915 100.032 C 235.964 100.186,249.050 107.997,248.489 108.134 C 247.849 108.290,248.170 108.431,250.104 108.842 C 252.739 109.401,252.562 109.285,252.455 110.386 C 252.296 112.031,251.250 113.674,251.250 112.279 C 251.250 111.827,250.808 111.770,249.558 112.060 C 248.901 112.213,248.816 112.190,248.897 111.878 C 248.971 111.597,247.524 110.656,242.152 107.490 C 238.390 105.274,234.250 102.825,232.952 102.049 L 230.591 100.638 229.337 100.930 C 228.647 101.091,228.049 101.256,228.008 101.297 C 227.967 101.338,232.217 103.898,237.453 106.986 C 245.881 111.958,246.900 112.614,246.350 112.711 C 245.485 112.864,245.820 113.004,248.333 113.542 C 249.536 113.799,250.552 114.036,250.589 114.070 C 250.709 114.176,248.871 115.184,248.014 115.482 C 246.141 116.134,246.109 116.129,245.957 115.181 C 245.809 114.252,245.840 114.260,244.072 114.704 C 243.615 114.818,243.524 114.779,243.579 114.489 C 243.630 114.218,241.243 112.713,233.477 108.118 L 223.307 102.103 222.122 102.331 C 221.471 102.456,220.873 102.616,220.793 102.686 C 220.714 102.755,225.330 105.577,231.050 108.955 C 239.613 114.012,241.373 115.127,241.008 115.262 C 240.393 115.489,240.526 115.561,242.409 116.016 L 244.063 116.416 240.482 116.437 L 236.901 116.458 236.759 115.515 C 236.648 114.775,236.544 114.592,236.277 114.670 C 235.032 115.034,234.431 115.029,234.325 114.653 C 234.258 114.417,230.767 112.241,225.198 108.964 C 217.444 104.401,216.250 103.635,216.683 103.499 C 217.090 103.372,217.067 103.361,216.563 103.446 C 214.652 103.766,213.334 104.057,213.338 104.157 C 213.340 104.220,217.558 106.755,222.712 109.792 C 227.865 112.828,232.082 115.383,232.082 115.469 C 232.084 115.763,230.303 115.625,227.313 115.101 C 223.901 114.502,223.958 114.524,223.958 113.835 C 223.958 113.186,223.625 113.057,222.562 113.296 C 221.824 113.462,221.732 113.442,221.812 113.136 C 221.883 112.865,220.425 111.913,215.405 108.948 C 209.959 105.732,208.987 105.088,209.401 104.972 C 210.376 104.698,209.446 104.806,207.642 105.174 L 205.806 105.550 212.122 109.267 C 219.380 113.540,219.499 113.615,218.750 113.450 C 211.970 111.953,208.813 111.157,208.604 110.891 C 208.448 110.693,208.151 110.611,207.821 110.674 C 207.402 110.754,207.336 110.719,207.512 110.506 C 207.768 110.198,207.974 110.347,204.195 108.110 C 202.105 106.872,201.692 106.552,202.007 106.413 C 202.244 106.309,202.110 106.295,201.667 106.378 C 199.328 106.815,198.262 107.046,198.506 107.063 C 198.892 107.091,202.807 109.448,202.580 109.516 C 202.479 109.546,200.802 109.161,198.854 108.659 C 196.906 108.157,195.500 107.730,195.729 107.711 C 195.958 107.691,196.052 107.638,195.938 107.591 C 195.823 107.545,194.885 107.681,193.854 107.893 L 191.979 108.279 192.813 108.520 C 195.688 109.351,213.513 113.690,218.021 114.656 C 240.228 119.415,250.456 118.851,253.209 112.716 C 253.727 111.561,254.315 107.292,253.956 107.292 C 253.892 107.292,253.825 107.114,253.809 106.897 C 253.752 106.138,249.690 96.882,249.412 96.879 C 249.199 96.876,249.206 96.944,249.444 97.182 M287.140 97.917 C 287.140 98.432,287.181 98.643,287.230 98.385 C 287.280 98.128,287.280 97.706,287.230 97.448 C 287.181 97.190,287.140 97.401,287.140 97.917 M137.363 97.587 C 131.422 98.716,128.864 101.791,129.232 107.366 C 129.385 109.688,132.942 118.134,133.750 118.094 C 134.220 118.071,134.227 118.060,133.815 117.980 C 133.421 117.903,132.083 114.762,132.083 113.914 C 132.083 113.738,137.341 116.825,137.511 117.102 C 137.634 117.301,139.967 116.938,140.266 116.673 C 140.492 116.474,132.943 112.029,132.296 111.980 C 132.007 111.958,131.704 111.926,131.623 111.908 C 131.292 111.835,130.499 107.950,130.766 107.710 C 131.183 107.334,132.250 107.301,132.162 107.666 C 132.095 107.941,133.559 108.901,138.645 111.919 L 145.215 115.818 146.410 115.588 C 147.067 115.461,147.666 115.301,147.742 115.231 C 147.818 115.161,144.794 113.276,141.023 111.042 C 135.501 107.770,134.257 106.954,134.635 106.852 C 135.242 106.686,135.021 106.600,132.527 106.027 L 130.575 105.578 130.697 104.683 C 130.894 103.251,131.737 101.643,131.882 102.424 C 131.990 103.006,132.022 103.020,133.178 102.967 C 134.071 102.927,134.338 102.980,134.261 103.180 C 134.194 103.354,137.377 105.361,143.335 108.903 L 152.512 114.359 153.704 114.129 C 154.359 114.003,154.957 113.843,155.032 113.773 C 155.108 113.703,151.133 111.255,146.199 108.333 C 141.266 105.411,137.032 102.860,136.792 102.663 L 136.354 102.306 136.858 102.299 C 137.794 102.286,137.067 101.982,134.831 101.450 L 132.604 100.920 133.548 100.363 C 135.825 99.019,137.152 98.816,137.292 99.792 C 137.404 100.580,137.664 100.663,139.093 100.364 C 139.641 100.250,139.734 100.285,139.665 100.583 C 139.600 100.858,141.818 102.260,149.614 106.870 C 158.209 111.953,159.575 112.826,159.146 112.961 C 158.632 113.124,158.829 113.095,161.442 112.630 L 162.779 112.392 152.244 106.144 C 146.449 102.707,141.863 99.863,142.052 99.824 C 142.881 99.649,142.605 99.425,141.097 99.049 L 139.479 98.646 142.292 98.584 C 146.161 98.499,146.373 98.549,146.541 99.601 C 146.648 100.269,146.750 100.420,147.036 100.336 C 148.205 99.993,148.961 99.959,148.847 100.255 C 148.763 100.475,151.196 102.018,157.831 105.952 C 165.432 110.459,166.848 111.370,166.434 111.486 C 165.457 111.760,166.387 111.653,168.192 111.284 L 170.030 110.908 160.559 105.298 C 155.350 102.212,151.137 99.605,151.198 99.504 C 151.526 98.958,159.165 100.318,159.170 100.923 C 159.176 101.744,159.453 101.920,160.494 101.764 C 161.277 101.647,161.442 101.674,161.353 101.908 C 161.275 102.111,163.184 103.350,167.716 106.040 C 172.758 109.031,174.108 109.919,173.814 110.049 C 173.596 110.146,173.744 110.159,174.167 110.080 C 174.568 110.005,175.475 109.839,176.184 109.711 L 177.471 109.478 176.288 108.820 C 173.551 107.300,163.888 101.438,164.271 101.530 C 164.500 101.586,166.844 102.119,169.479 102.717 C 172.368 103.371,174.370 103.927,174.521 104.115 C 174.669 104.299,174.978 104.388,175.274 104.331 C 175.656 104.258,175.756 104.314,175.690 104.566 C 175.627 104.806,176.447 105.398,178.672 106.719 C 180.834 108.003,181.591 108.547,181.235 108.558 C 180.957 108.567,180.823 108.612,180.938 108.659 C 181.052 108.705,181.990 108.563,183.021 108.344 C 184.052 108.125,184.771 107.939,184.619 107.931 C 184.279 107.913,180.373 105.599,180.488 105.484 C 180.677 105.295,187.487 107.144,187.360 107.349 C 187.271 107.493,187.462 107.511,187.936 107.403 C 188.327 107.314,189.208 107.127,189.896 106.987 L 191.146 106.733 190.313 106.489 C 180.789 103.702,159.306 98.948,151.042 97.798 C 147.734 97.338,139.354 97.209,137.363 97.587 M287.176 105.729 C 287.176 109.396,287.205 110.866,287.239 108.997 C 287.274 107.128,287.274 104.128,287.239 102.331 C 287.204 100.533,287.176 102.063,287.176 105.729 M285.301 105.938 C 285.301 109.604,285.330 111.075,285.364 109.206 C 285.399 107.336,285.399 104.336,285.364 102.539 C 285.329 100.741,285.301 102.271,285.301 105.938 M110.053 108.646 C 110.055 109.104,110.098 109.267,110.147 109.008 C 110.197 108.749,110.195 108.374,110.143 108.175 C 110.091 107.975,110.050 108.188,110.053 108.646 M110.049 116.288 L 110.000 122.681 109.427 122.767 L 108.854 122.854 109.434 122.885 C 110.239 122.929,110.221 123.094,110.156 116.144 L 110.098 109.896 110.049 116.288 M111.967 116.250 C 111.967 119.630,111.996 121.013,112.031 119.323 C 112.066 117.633,112.066 114.867,112.031 113.177 C 111.996 111.487,111.967 112.870,111.967 116.250 M285.261 113.854 C 285.263 114.313,285.306 114.475,285.356 114.216 C 285.406 113.957,285.404 113.582,285.351 113.383 C 285.299 113.184,285.259 113.396,285.261 113.854 M279.848 116.458 C 279.848 116.974,279.889 117.185,279.939 116.927 C 279.988 116.669,279.988 116.247,279.939 115.990 C 279.889 115.732,279.848 115.943,279.848 116.458 M146.735 119.063 C 146.736 119.865,146.774 120.167,146.819 119.735 C 146.864 119.303,146.863 118.646,146.817 118.277 C 146.771 117.907,146.734 118.260,146.735 119.063 M279.885 124.896 C 279.885 128.792,279.913 130.356,279.948 128.372 C 279.982 126.388,279.982 123.201,279.948 121.289 C 279.913 119.377,279.885 121.000,279.885 124.896 M278.010 125.208 C 278.010 129.161,278.038 130.779,278.073 128.802 C 278.107 126.826,278.107 123.591,278.073 121.615 C 278.038 119.638,278.010 121.255,278.010 125.208 M139.317 125.342 C 139.343 129.082,139.413 132.191,139.474 132.251 C 139.534 132.312,139.583 129.252,139.583 125.451 C 139.583 121.651,139.513 118.542,139.427 118.542 C 139.341 118.542,139.292 121.602,139.317 125.342 M132.275 120.182 C 132.693 120.299,132.894 120.667,133.459 122.353 C 133.834 123.470,134.076 124.348,133.997 124.305 C 132.880 123.698,128.615 121.112,128.526 120.989 C 128.422 120.844,126.713 121.091,125.851 121.375 C 125.384 121.528,133.126 126.123,133.776 126.077 C 134.506 126.026,134.683 126.296,135.080 128.062 C 135.523 130.036,135.517 130.624,135.052 130.628 C 134.852 130.629,134.453 130.693,134.167 130.768 C 133.707 130.889,133.678 130.866,133.921 130.570 C 134.164 130.273,133.441 129.785,127.549 126.270 L 120.903 122.304 119.618 122.543 C 118.911 122.674,118.333 122.841,118.333 122.914 C 118.333 122.987,121.385 124.869,125.115 127.096 C 130.508 130.316,131.799 131.169,131.419 131.259 C 130.748 131.418,131.062 131.545,133.455 132.080 L 135.555 132.550 135.402 133.517 C 135.128 135.248,134.167 136.790,134.167 135.497 C 134.167 134.957,133.161 134.888,131.968 135.346 C 131.789 135.414,131.730 135.321,131.796 135.069 C 131.876 134.756,130.241 133.701,122.740 129.228 L 113.586 123.768 112.158 124.034 L 110.729 124.299 111.563 124.822 C 112.021 125.109,116.317 127.681,121.109 130.537 C 126.403 133.692,129.673 135.758,129.442 135.801 C 128.489 135.983,128.908 136.213,131.027 136.673 C 133.650 137.242,133.695 137.383,131.563 138.339 C 129.217 139.392,128.760 139.345,128.753 138.050 C 128.750 137.539,128.684 137.471,128.281 137.567 C 126.702 137.947,126.244 137.965,126.367 137.646 C 126.460 137.404,124.074 135.880,116.465 131.320 C 108.065 126.286,106.519 125.288,106.919 125.159 C 107.403 125.003,107.085 125.050,104.629 125.493 L 103.321 125.729 113.588 131.861 C 125.277 138.843,124.391 138.263,123.733 138.510 C 123.185 138.717,123.619 138.890,125.729 139.306 L 126.563 139.470 125.313 139.608 C 124.625 139.685,123.055 139.696,121.823 139.634 L 119.583 139.521 119.580 138.979 C 119.574 137.986,119.328 137.830,118.140 138.064 C 117.198 138.251,117.085 138.236,117.173 137.940 C 117.248 137.684,115.112 136.319,108.180 132.194 C 100.479 127.611,99.166 126.762,99.596 126.642 C 100.588 126.365,99.661 126.471,97.846 126.842 L 96.005 127.218 105.590 132.932 C 116.371 139.358,116.315 139.304,111.407 138.517 C 106.888 137.792,106.676 137.710,106.670 136.696 C 106.667 136.190,106.163 136.166,104.689 136.604 C 104.331 136.710,104.311 136.682,104.547 136.398 C 104.876 136.001,105.590 136.485,97.759 131.800 C 93.888 129.484,91.798 128.121,92.030 128.064 C 92.466 127.957,91.843 128.053,89.988 128.380 L 88.621 128.621 95.239 132.583 C 98.879 134.762,101.827 136.576,101.790 136.613 C 101.601 136.802,91.536 134.312,91.312 134.021 C 91.162 133.828,90.886 133.742,90.630 133.809 C 90.316 133.891,90.214 133.832,90.255 133.592 C 90.295 133.366,89.382 132.703,87.340 131.475 C 84.791 129.942,84.435 129.666,84.840 129.535 C 85.390 129.358,84.864 129.428,82.680 129.825 L 81.298 130.077 83.409 131.314 C 84.571 131.995,85.601 132.625,85.699 132.715 C 85.797 132.805,84.173 132.451,82.090 131.930 C 79.673 131.325,78.402 130.918,78.578 130.807 C 78.998 130.540,78.334 130.574,77.513 130.860 L 76.838 131.095 78.263 132.000 C 79.046 132.498,85.430 136.353,92.448 140.566 C 101.564 146.039,105.208 148.332,105.208 148.593 C 105.208 148.840,105.360 148.951,105.677 148.934 C 106.030 148.916,106.056 148.886,105.781 148.815 C 105.581 148.762,105.417 148.590,105.417 148.433 C 105.417 148.275,99.750 144.746,92.823 140.590 C 85.897 136.434,80.260 133.004,80.296 132.968 C 80.333 132.931,83.539 133.694,87.421 134.664 C 120.213 142.853,132.794 143.109,136.206 135.656 C 136.725 134.523,137.222 129.791,136.823 129.792 C 136.737 129.792,136.667 129.599,136.667 129.362 C 136.667 128.162,132.859 120.000,132.310 120.021 L 131.771 120.042 132.275 120.182 M146.764 132.083 C 146.764 138.099,146.790 140.560,146.823 137.552 C 146.855 134.544,146.855 129.622,146.823 126.615 C 146.790 123.607,146.764 126.068,146.764 132.083 M148.639 132.292 C 148.639 138.307,148.665 140.768,148.698 137.760 C 148.730 134.753,148.730 129.831,148.698 126.823 C 148.665 123.815,148.639 126.276,148.639 132.292 M72.967 130.895 C 73.300 131.165,73.334 131.962,73.385 140.855 L 73.442 150.521 73.492 140.789 L 73.542 131.056 73.073 130.829 C 72.651 130.625,72.641 130.632,72.967 130.895 M75.309 167.917 C 75.309 182.411,75.334 188.341,75.365 181.094 C 75.395 173.846,75.395 161.987,75.365 154.740 C 75.334 147.492,75.309 153.422,75.309 167.917 M103.048 149.058 C 103.115 149.232,103.300 149.375,103.460 149.375 C 103.867 149.375,103.821 149.219,103.338 148.961 C 103.002 148.781,102.948 148.799,103.048 149.058 M102.500 149.583 C 102.672 149.694,102.953 149.785,103.125 149.785 C 103.403 149.785,103.403 149.763,103.125 149.583 C 102.953 149.472,102.672 149.381,102.500 149.381 C 102.222 149.381,102.222 149.404,102.500 149.583 M103.958 150.000 C 104.245 150.092,104.667 150.167,104.896 150.167 C 105.226 150.167,105.204 150.132,104.792 150.000 C 104.505 149.908,104.083 149.833,103.854 149.833 C 103.524 149.833,103.546 149.868,103.958 150.000 M107.917 150.615 C 107.917 150.779,107.757 150.840,107.500 150.773 C 107.270 150.713,107.135 150.749,107.200 150.853 C 107.264 150.957,107.446 151.042,107.604 151.042 C 107.934 151.042,108.228 150.659,108.042 150.472 C 107.973 150.403,107.917 150.468,107.917 150.615 M167.697 156.823 L 166.979 157.604 167.760 156.886 C 168.488 156.218,168.637 156.042,168.478 156.042 C 168.444 156.042,168.092 156.393,167.697 156.823 M168.750 157.604 C 168.244 158.120,167.877 158.542,167.934 158.542 C 167.991 158.542,168.452 158.120,168.958 157.604 C 169.464 157.089,169.832 156.667,169.774 156.667 C 169.717 156.667,169.256 157.089,168.750 157.604 M73.637 185.313 C 73.637 190.240,73.664 192.225,73.698 189.725 C 73.731 187.226,73.731 183.194,73.698 180.767 C 73.664 178.340,73.637 180.385,73.637 185.313 " stroke="none" fill="#5abed5" fill-rule="evenodd"></path><path id="path1" d="M73.958 67.372 C 73.958 67.531,73.490 68.770,72.917 70.125 C 71.680 73.050,71.686 72.998,72.579 72.831 L 73.283 72.699 73.426 84.214 C 73.504 90.547,73.539 103.253,73.503 112.448 L 73.438 129.166 57.604 119.663 C 48.896 114.437,41.675 110.122,41.558 110.076 C 41.184 109.928,40.520 111.264,40.860 111.479 C 41.017 111.579,48.435 116.035,57.344 121.381 L 73.542 131.102 73.542 149.353 C 73.542 159.391,73.604 173.581,73.680 180.885 L 73.818 194.167 74.513 194.167 L 75.208 194.167 75.208 163.135 L 75.208 132.104 89.508 140.683 C 101.288 147.751,103.721 149.286,103.310 149.393 C 102.749 149.540,102.602 149.486,105.313 150.134 C 106.000 150.299,106.823 150.536,107.142 150.661 C 107.915 150.965,107.965 150.870,107.694 149.606 C 107.511 148.754,107.389 148.547,107.116 148.627 C 105.823 149.005,105.208 149.002,105.208 148.616 C 105.208 148.324,102.027 146.317,92.448 140.566 C 85.430 136.353,79.044 132.497,78.258 131.997 L 76.829 131.089 77.529 130.867 C 77.914 130.745,78.839 130.541,79.583 130.414 C 80.328 130.287,82.766 129.822,85.000 129.380 C 87.234 128.937,89.531 128.484,90.104 128.373 C 90.677 128.261,92.083 127.978,93.229 127.744 C 94.375 127.509,97.563 126.882,100.313 126.351 C 103.063 125.820,105.875 125.256,106.563 125.098 C 107.250 124.941,108.656 124.660,109.688 124.475 C 110.719 124.290,114.609 123.534,118.333 122.796 C 149.700 116.579,153.405 115.849,154.167 115.735 C 154.568 115.674,155.271 115.534,155.729 115.423 C 156.188 115.313,159.281 114.698,162.604 114.058 C 165.927 113.417,169.255 112.764,170.000 112.605 C 170.745 112.446,174.073 111.789,177.396 111.145 C 180.719 110.500,184.281 109.795,185.313 109.578 C 186.344 109.361,189.906 108.659,193.229 108.018 C 196.552 107.378,199.880 106.723,200.625 106.563 C 201.370 106.403,204.698 105.747,208.021 105.105 C 211.344 104.463,214.906 103.759,215.938 103.542 C 216.969 103.324,220.063 102.713,222.813 102.184 C 225.563 101.655,228.891 100.998,230.208 100.724 C 231.526 100.450,235.042 99.753,238.021 99.176 C 241.000 98.598,244.563 97.895,245.938 97.613 C 247.313 97.330,251.813 96.438,255.938 95.630 C 260.063 94.821,266.719 93.511,270.729 92.719 C 274.740 91.926,281.396 90.616,285.521 89.807 C 289.646 88.998,293.443 88.246,293.958 88.136 C 294.474 88.025,297.568 87.414,300.833 86.777 C 313.000 84.403,322.854 82.465,324.167 82.187 C 324.911 82.029,328.240 81.373,331.563 80.730 C 334.885 80.087,338.214 79.431,338.958 79.273 C 339.703 79.115,342.797 78.505,345.833 77.917 C 348.870 77.330,352.432 76.625,353.750 76.351 C 355.068 76.078,358.349 75.427,361.042 74.906 C 363.734 74.384,366.547 73.824,367.292 73.660 C 368.036 73.495,370.205 73.065,372.111 72.704 C 375.264 72.106,375.567 72.011,375.472 71.648 C 375.342 71.149,375.451 71.150,376.284 71.657 L 376.953 72.064 378.588 71.213 C 379.488 70.745,380.192 70.331,380.154 70.293 C 379.960 70.099,374.008 70.643,372.292 71.011 C 371.203 71.245,367.875 71.910,364.896 72.489 C 361.917 73.068,358.589 73.725,357.500 73.951 C 356.411 74.176,353.083 74.832,350.104 75.409 C 347.125 75.987,344.078 76.594,343.333 76.759 C 342.589 76.924,341.135 77.212,340.104 77.398 C 337.510 77.867,330.183 79.310,328.542 79.675 C 327.797 79.841,326.344 80.129,325.313 80.316 C 324.281 80.502,320.156 81.305,316.146 82.100 C 312.135 82.895,305.526 84.201,301.458 85.002 C 297.391 85.804,290.781 87.108,286.771 87.900 C 282.760 88.693,276.104 90.007,271.979 90.821 C 267.854 91.635,261.432 92.906,257.708 93.644 C 253.984 94.383,250.609 95.037,250.208 95.098 C 249.807 95.159,249.104 95.299,248.646 95.410 C 248.188 95.521,245.141 96.130,241.875 96.762 C 238.609 97.395,235.281 98.049,234.479 98.217 C 233.677 98.385,230.349 99.042,227.083 99.678 C 223.818 100.313,220.536 100.968,219.792 101.133 C 219.047 101.297,217.313 101.633,215.938 101.879 C 214.563 102.125,212.875 102.455,212.188 102.612 C 211.500 102.770,209.719 103.128,208.229 103.409 C 206.740 103.690,204.818 104.065,203.958 104.242 C 203.099 104.419,199.677 105.088,196.354 105.729 C 193.031 106.369,189.469 107.073,188.438 107.292 C 187.406 107.511,184.313 108.122,181.563 108.650 C 178.813 109.179,175.766 109.786,174.792 110.001 C 173.818 110.216,172.177 110.544,171.146 110.731 C 168.428 111.223,161.164 112.656,159.583 113.011 C 158.839 113.179,157.411 113.458,156.410 113.632 C 155.410 113.805,151.519 114.560,147.764 115.309 C 136.503 117.555,126.765 119.479,119.271 120.938 C 115.375 121.696,111.578 122.446,110.833 122.604 C 110.089 122.763,106.760 123.418,103.438 124.062 C 100.115 124.705,96.786 125.361,96.042 125.520 C 95.297 125.678,92.063 126.320,88.854 126.947 C 85.646 127.573,82.505 128.188,81.875 128.313 C 81.245 128.438,79.523 128.780,78.049 129.073 C 76.576 129.366,75.324 129.560,75.269 129.505 C 75.213 129.449,75.117 116.671,75.054 101.108 C 74.974 81.204,74.874 72.769,74.716 72.667 C 74.453 72.498,74.732 72.386,75.899 72.192 C 76.336 72.119,76.664 71.976,76.628 71.874 C 76.012 70.124,73.958 66.662,73.958 67.372 " stroke="none" fill="#f6f6f6" fill-rule="evenodd"></path><path id="path2" d="M336.354 30.917 C 329.188 33.189,322.637 43.964,312.980 69.360 C 311.131 74.222,307.705 83.608,307.761 83.656 C 307.789 83.681,308.106 83.656,308.464 83.601 L 309.115 83.502 311.693 76.491 L 314.271 69.479 314.375 75.944 L 314.479 82.409 315.365 82.234 L 316.250 82.059 316.250 74.797 C 316.250 69.597,316.317 67.513,316.485 67.457 C 316.639 67.405,316.562 67.069,316.259 66.477 L 315.799 65.575 317.101 62.319 C 319.755 55.680,320.707 53.651,321.205 53.579 L 321.664 53.513 321.717 67.232 L 321.771 80.951 322.655 80.776 L 323.539 80.601 323.592 66.814 C 323.645 53.209,323.651 53.026,324.063 52.959 C 325.029 52.804,325.029 52.758,324.067 50.842 C 323.549 49.811,323.125 48.862,323.125 48.733 C 323.125 48.124,328.524 38.854,328.538 39.441 C 328.540 39.534,328.452 39.778,328.342 39.983 C 328.233 40.188,327.949 40.847,327.713 41.447 L 327.283 42.538 328.121 42.397 L 328.958 42.255 328.958 60.900 C 328.958 81.608,328.815 79.584,330.260 79.279 L 330.833 79.159 330.833 60.539 C 330.833 40.358,330.761 41.667,331.880 41.667 C 332.556 41.667,332.501 41.372,331.454 39.361 C 330.891 38.280,330.427 37.244,330.423 37.059 C 330.407 36.234,334.695 32.741,336.181 32.368 C 336.794 32.215,336.842 31.998,335.625 34.875 C 335.052 36.230,334.583 37.376,334.583 37.422 C 334.583 37.467,334.958 37.445,335.417 37.372 L 336.250 37.238 336.250 57.676 L 336.250 78.115 336.927 77.988 C 337.299 77.918,337.663 77.804,337.735 77.733 C 337.961 77.512,338.119 66.738,338.122 51.504 C 338.124 39.974,338.180 36.845,338.385 36.782 C 338.529 36.738,338.904 36.645,339.219 36.576 L 339.791 36.451 338.628 34.131 L 337.465 31.812 338.993 31.938 C 340.596 32.070,343.363 33.242,343.818 33.982 C 343.972 34.232,343.770 34.924,343.028 36.690 C 342.481 37.995,341.981 39.194,341.919 39.355 C 341.828 39.591,341.979 39.620,342.706 39.504 L 343.605 39.360 343.454 58.018 L 343.303 76.676 344.204 76.538 C 344.699 76.462,345.115 76.390,345.129 76.377 C 345.142 76.365,345.189 67.945,345.233 57.666 L 345.313 38.978 346.094 38.846 C 347.051 38.684,347.051 38.675,346.123 36.818 L 345.370 35.313 346.040 35.938 C 346.860 36.703,349.643 40.379,350.589 41.947 L 351.283 43.096 350.329 45.356 C 349.199 48.032,349.203 48.003,350.000 47.844 L 350.625 47.719 350.625 61.490 L 350.625 75.260 351.276 75.130 C 351.634 75.059,352.056 75.000,352.214 75.000 C 352.454 75.000,352.500 72.766,352.500 61.170 L 352.500 47.340 353.033 47.238 C 353.712 47.109,353.687 47.069,356.145 52.148 C 358.462 56.935,358.504 57.081,357.940 58.333 C 357.708 58.849,357.608 59.302,357.717 59.340 C 357.839 59.383,357.917 62.211,357.917 66.603 L 357.917 73.796 358.696 73.650 C 359.125 73.570,359.547 73.460,359.634 73.406 C 359.721 73.353,359.795 70.338,359.799 66.706 L 359.805 60.104 360.906 62.604 C 361.511 63.979,362.694 66.750,363.535 68.761 C 365.048 72.382,365.069 72.418,365.657 72.331 C 366.441 72.216,366.574 72.664,363.831 66.211 C 351.715 37.712,344.432 28.356,336.354 30.917 M220.471 53.645 C 213.966 55.079,207.485 64.626,199.541 84.479 C 196.417 92.286,191.168 106.446,191.336 106.613 C 191.980 107.257,192.677 106.373,193.643 103.687 C 194.187 102.175,195.347 99.016,196.222 96.667 L 197.813 92.396 197.868 98.909 L 197.923 105.423 198.493 105.296 C 199.920 104.979,199.792 105.731,199.792 97.694 C 199.792 93.045,199.866 90.417,199.997 90.417 C 200.110 90.417,199.999 89.998,199.751 89.485 L 199.298 88.554 200.394 85.788 C 203.114 78.924,204.237 76.493,204.733 76.399 L 205.208 76.308 205.208 90.128 L 205.208 103.948 205.885 103.831 C 206.258 103.767,206.680 103.678,206.823 103.634 C 207.028 103.572,207.083 100.601,207.083 89.694 L 207.083 75.833 207.552 75.830 C 208.619 75.823,208.621 75.571,207.567 73.573 L 206.563 71.668 207.547 69.740 C 208.650 67.580,211.045 63.504,211.679 62.708 C 212.108 62.169,211.640 63.674,211.016 64.840 C 210.727 65.379,210.813 65.424,211.725 65.219 L 212.500 65.044 212.500 83.781 L 212.500 102.519 213.281 102.378 C 213.711 102.300,214.133 102.197,214.219 102.148 C 214.305 102.099,214.375 93.627,214.375 83.321 L 214.375 64.583 214.948 64.580 C 216.140 64.574,216.142 64.374,214.983 62.044 L 213.897 59.858 214.396 59.176 C 215.437 57.755,219.749 54.680,220.145 55.075 C 220.267 55.198,220.079 55.705,218.869 58.518 L 218.117 60.264 218.954 60.152 L 219.792 60.040 219.792 80.565 L 219.792 101.090 220.260 100.965 C 220.518 100.896,220.940 100.838,221.198 100.836 L 221.667 100.833 221.667 80.227 L 221.667 59.620 222.500 59.479 C 223.514 59.308,223.537 59.564,222.292 57.083 C 221.719 55.942,221.250 54.947,221.250 54.872 C 221.250 54.112,225.698 55.358,227.167 56.529 L 227.735 56.982 226.767 59.272 C 225.217 62.941,225.280 62.560,226.248 62.396 L 227.083 62.255 227.083 80.945 L 227.083 99.635 227.734 99.505 C 228.092 99.434,228.514 99.375,228.672 99.375 C 228.913 99.375,228.958 96.399,228.958 80.647 C 228.958 60.348,228.886 61.667,230.005 61.667 C 230.682 61.667,230.658 61.305,229.878 59.748 C 229.133 58.259,229.129 58.239,229.687 58.750 C 231.108 60.050,235.108 65.691,234.921 66.132 C 234.870 66.254,234.399 67.366,233.877 68.602 L 232.926 70.851 233.650 70.715 L 234.375 70.579 234.375 84.378 L 234.375 98.177 235.026 98.047 C 235.384 97.975,235.806 97.917,235.964 97.917 C 236.204 97.917,236.250 95.682,236.250 84.087 L 236.250 70.257 236.703 70.139 C 237.400 69.956,237.405 69.963,239.926 75.099 L 242.299 79.932 241.777 81.112 C 241.490 81.761,241.348 82.292,241.461 82.292 C 241.592 82.292,241.667 84.888,241.667 89.479 C 241.667 95.439,241.716 96.667,241.953 96.667 C 242.111 96.667,242.533 96.608,242.891 96.536 L 243.542 96.406 243.560 89.714 L 243.577 83.021 244.166 84.271 C 244.490 84.958,245.677 87.699,246.805 90.361 C 248.769 94.998,248.878 95.200,249.427 95.204 C 250.206 95.210,250.250 95.368,248.007 90.044 C 240.441 72.079,235.454 62.880,230.535 57.818 C 227.099 54.281,223.796 52.912,220.471 53.645 M102.325 76.873 C 94.949 79.527,88.096 91.459,77.511 120.080 C 75.271 126.136,75.209 126.353,75.215 127.997 C 75.223 130.107,75.161 130.218,77.498 123.854 C 78.549 120.990,79.707 117.849,80.069 116.875 L 80.729 115.104 80.784 121.815 C 80.827 127.028,80.897 128.509,81.097 128.447 C 81.238 128.404,81.612 128.312,81.927 128.243 L 82.500 128.117 82.500 120.847 C 82.500 115.641,82.567 113.554,82.735 113.498 C 82.889 113.447,82.813 113.113,82.512 112.523 L 82.054 111.626 83.147 108.886 C 86.247 101.116,87.086 99.375,87.734 99.375 C 88.113 99.375,88.125 99.815,88.125 113.243 C 88.125 126.350,88.145 127.106,88.490 127.013 C 88.690 126.958,89.113 126.856,89.430 126.785 L 90.006 126.657 89.951 112.821 L 89.896 98.985 90.573 98.858 C 91.433 98.697,91.432 98.688,90.306 96.445 L 89.362 94.566 90.857 91.814 C 92.430 88.918,94.828 84.966,94.942 85.081 C 94.979 85.118,94.726 85.780,94.380 86.552 C 93.571 88.356,93.576 88.399,94.583 88.229 L 95.417 88.088 95.417 106.861 L 95.417 125.633 95.990 125.505 C 97.432 125.185,97.292 127.231,97.292 106.448 L 97.292 87.716 97.865 87.591 C 98.180 87.522,98.557 87.428,98.702 87.383 C 98.884 87.327,98.609 86.587,97.821 85.017 L 96.675 82.732 97.714 81.596 C 99.108 80.071,103.125 77.417,103.125 78.021 C 103.125 78.082,102.651 79.266,102.072 80.652 C 100.884 83.496,100.891 83.370,101.933 83.135 L 102.708 82.961 102.708 103.573 L 102.708 124.186 103.490 124.045 C 103.919 123.967,104.341 123.864,104.427 123.815 C 104.513 123.766,104.583 114.450,104.583 103.113 L 104.583 82.500 105.156 82.497 C 106.386 82.490,106.385 82.284,105.136 79.892 L 103.967 77.654 105.519 77.754 C 107.079 77.854,108.918 78.561,110.176 79.545 L 110.665 79.928 109.782 81.995 C 109.296 83.132,108.765 84.380,108.601 84.769 L 108.303 85.475 109.152 85.339 L 110.000 85.203 110.002 93.487 C 110.003 100.695,110.219 122.540,110.290 122.640 C 110.304 122.660,110.643 122.609,111.043 122.528 L 111.771 122.379 111.824 103.588 L 111.877 84.796 112.709 84.663 C 113.722 84.501,113.722 84.515,112.786 82.651 C 111.584 80.256,113.953 82.839,116.685 86.902 C 118.146 89.075,118.102 88.665,117.112 90.954 C 115.847 93.877,115.853 93.835,116.747 93.690 L 117.500 93.568 117.500 107.418 L 117.500 121.269 118.281 121.130 C 118.711 121.054,119.138 120.923,119.230 120.839 C 119.322 120.755,119.369 114.492,119.334 106.922 L 119.271 93.157 119.847 93.072 C 120.409 92.990,120.485 93.111,122.816 97.806 C 125.440 103.092,125.381 102.903,124.801 104.196 C 124.576 104.695,124.483 105.135,124.592 105.174 C 124.714 105.216,124.792 108.083,124.792 112.542 L 124.792 119.840 125.260 119.715 C 125.518 119.646,125.940 119.588,126.198 119.586 L 126.667 119.583 126.667 112.882 C 126.667 109.196,126.717 106.231,126.779 106.293 C 126.841 106.355,128.043 109.066,129.450 112.317 C 131.993 118.194,132.346 118.779,132.966 118.159 C 133.281 117.844,127.972 105.406,124.460 98.229 C 116.012 80.970,109.202 74.400,102.325 76.873 M307.281 85.552 C 307.077 85.607,306.465 87.000,305.622 89.330 C 304.887 91.360,303.701 94.568,302.986 96.458 L 301.685 99.896 301.676 93.272 L 301.667 86.648 300.885 86.789 C 300.456 86.867,300.092 86.941,300.078 86.955 C 300.064 86.968,300.017 90.214,299.974 94.167 C 299.927 98.501,299.815 101.412,299.693 101.500 C 299.568 101.589,299.656 101.992,299.920 102.541 L 300.350 103.438 299.136 106.458 C 296.008 114.240,295.504 115.301,294.844 115.507 L 294.375 115.653 294.375 101.880 L 294.375 88.106 293.594 88.247 C 293.164 88.325,292.776 88.421,292.731 88.460 C 292.686 88.499,292.639 94.721,292.627 102.286 C 292.604 115.893,292.600 116.041,292.188 116.044 C 291.105 116.054,291.096 116.337,292.112 118.384 L 293.077 120.325 292.664 121.152 C 291.298 123.892,287.954 129.482,287.784 129.312 C 287.739 129.267,287.939 128.698,288.226 128.047 C 288.816 126.714,288.865 126.436,288.490 126.552 C 288.346 126.596,287.958 126.692,287.627 126.765 L 287.024 126.898 287.128 108.219 L 287.232 89.540 286.384 89.675 C 285.918 89.750,285.512 89.835,285.483 89.864 C 285.453 89.894,285.409 95.163,285.383 101.574 C 285.358 107.984,285.301 116.382,285.256 120.236 L 285.175 127.244 284.358 127.374 L 283.541 127.505 284.703 129.823 L 285.866 132.141 284.756 133.277 C 283.094 134.976,279.820 137.181,279.474 136.835 C 279.439 136.800,279.825 135.786,280.332 134.583 C 281.684 131.379,281.662 131.581,280.640 131.744 L 279.774 131.883 279.920 111.462 C 280.051 93.183,280.033 91.042,279.747 91.042 C 279.571 91.042,279.134 91.100,278.776 91.172 L 278.125 91.302 278.125 111.779 L 278.125 132.255 277.292 132.396 C 276.252 132.572,276.246 132.500,277.516 135.032 L 278.574 137.140 276.996 137.039 C 275.754 136.959,275.130 136.792,274.070 136.254 C 271.850 135.127,271.877 135.238,273.108 132.311 C 274.367 129.319,274.361 129.370,273.439 129.519 L 272.711 129.637 272.657 111.010 L 272.604 92.383 271.720 92.558 L 270.836 92.732 270.782 111.410 L 270.729 130.087 270.042 130.228 C 269.062 130.428,269.062 130.426,269.906 132.114 L 270.671 133.646 270.001 133.021 C 269.087 132.169,266.932 129.390,265.751 127.541 L 264.780 126.020 265.724 123.785 C 266.842 121.135,266.848 121.087,266.043 121.205 L 265.420 121.297 265.366 107.569 L 265.313 93.841 264.429 94.016 L 263.545 94.191 263.491 107.981 L 263.438 121.771 262.917 121.829 C 262.354 121.892,261.848 121.012,258.769 114.609 L 257.529 112.030 258.024 110.911 C 258.296 110.295,258.430 109.792,258.322 109.792 C 258.202 109.792,258.125 106.938,258.125 102.496 L 258.125 95.200 257.552 95.328 C 256.123 95.646,256.251 94.960,256.237 102.358 C 256.229 106.389,256.151 108.896,256.041 108.646 C 255.940 108.417,254.743 105.651,253.379 102.500 C 250.839 96.631,250.579 96.226,249.830 96.976 C 249.779 97.026,250.641 99.173,251.744 101.746 C 252.847 104.319,253.750 106.486,253.750 106.563 C 253.750 107.439,260.949 122.083,263.326 126.043 C 275.275 145.945,285.344 142.121,297.849 112.932 C 300.440 106.883,308.333 86.248,308.333 85.522 C 308.333 85.404,307.771 85.420,307.281 85.552 M190.935 108.474 C 190.592 108.543,190.045 109.839,187.914 115.633 L 185.313 122.708 185.208 116.191 L 185.104 109.674 184.219 109.849 L 183.333 110.025 183.333 117.304 C 183.333 122.115,183.261 124.583,183.121 124.583 C 183.004 124.583,183.098 124.955,183.329 125.408 C 183.893 126.514,183.945 126.278,182.218 130.521 C 179.209 137.912,178.932 138.498,178.403 138.599 L 177.917 138.692 177.917 124.863 L 177.917 111.034 177.344 111.161 C 175.904 111.482,176.042 109.987,176.042 125.327 C 176.042 138.831,176.032 139.167,175.642 139.167 C 174.564 139.167,174.560 139.322,175.583 141.387 L 176.563 143.363 175.313 145.770 C 174.131 148.044,171.674 152.151,171.223 152.604 C 170.994 152.834,171.135 152.424,171.860 150.752 C 172.383 149.546,172.389 149.558,171.400 149.781 L 170.625 149.956 170.625 131.224 L 170.625 112.492 170.052 112.620 C 168.610 112.940,168.750 110.896,168.750 131.654 L 168.750 150.363 167.917 150.497 C 166.899 150.659,166.874 150.407,168.161 152.995 L 169.239 155.162 168.569 156.008 C 167.454 157.414,163.850 160.000,163.003 160.000 C 162.808 160.000,162.967 159.540,164.044 157.003 L 165.007 154.736 164.170 154.848 L 163.333 154.960 163.333 134.450 L 163.333 113.939 162.552 114.080 C 162.122 114.158,161.701 114.261,161.615 114.310 C 161.529 114.359,161.458 123.620,161.458 134.890 L 161.458 155.380 160.625 155.521 C 159.611 155.692,159.588 155.436,160.833 157.917 C 161.406 159.058,161.875 160.053,161.875 160.128 C 161.875 160.560,158.673 160.023,157.404 159.379 C 155.232 158.277,155.256 158.360,156.372 155.711 C 157.890 152.110,157.831 152.475,156.871 152.629 L 156.042 152.762 156.042 134.080 L 156.042 115.398 155.260 115.537 C 154.831 115.613,154.409 115.739,154.324 115.816 C 154.239 115.893,154.145 124.339,154.116 134.584 L 154.063 153.212 153.375 153.353 C 152.395 153.553,152.395 153.551,153.239 155.239 L 154.005 156.771 153.334 156.146 C 152.475 155.346,150.346 152.620,149.062 150.676 L 148.063 149.165 149.031 146.883 C 150.189 144.155,150.182 144.229,149.285 144.334 L 148.570 144.417 148.549 130.709 C 148.538 123.169,148.499 116.971,148.462 116.934 C 148.426 116.898,148.046 116.941,147.617 117.030 L 146.838 117.192 146.805 131.044 L 146.771 144.896 146.205 144.961 C 145.660 145.024,145.547 144.841,143.198 140.117 L 140.757 135.207 141.212 134.110 C 141.716 132.894,141.768 132.621,141.458 132.813 C 141.321 132.897,141.250 130.445,141.250 125.613 L 141.250 118.285 140.781 118.410 C 140.523 118.479,140.148 118.537,139.948 118.539 C 139.608 118.541,139.583 119.015,139.574 125.469 L 139.564 132.396 138.964 131.098 C 138.633 130.385,137.396 127.549,136.213 124.796 C 134.341 120.438,134.004 119.792,133.606 119.792 C 132.823 119.792,132.878 120.082,134.290 123.366 C 135.045 125.124,136.066 127.547,136.559 128.750 C 139.078 134.900,143.558 144.029,146.376 148.750 C 158.914 169.757,169.178 165.356,182.482 133.268 C 184.698 127.923,190.927 111.495,191.758 108.802 C 191.907 108.320,191.840 108.293,190.935 108.474 " stroke="none" fill="#f96253" fill-rule="evenodd"></path></g></svg>