<?xml version="1.0" encoding="iso-8859-1"?>
<!-- Uploaded to: SVG Repo, www.svgrepo.com, Generator: SVG Repo Mixer Tools -->
<svg height="800px" width="800px" version="1.1" id="Layer_1" xmlns="http://www.w3.org/2000/svg" xmlns:xlink="http://www.w3.org/1999/xlink" 
	 viewBox="0 0 392.533 392.533" xml:space="preserve">
<path style="fill:#FFC10D;" d="M246.497,272.162L246.497,272.162H39.176c28.251,58.246,88.113,98.586,157.091,98.586
	s128.84-40.275,157.091-98.586H246.497z"/>
<path style="fill:#FFFFFF;" d="M352.646,207.192c-6.012,0-10.925-4.848-10.925-10.925s4.848-10.925,10.925-10.925h17.713
	c-2.457-39.887-18.36-76.218-43.378-104.404L314.57,93.414c-2.133,2.133-4.913,3.168-7.758,3.168c-2.844,0-5.56-1.099-7.758-3.168
	c-4.267-4.267-4.267-11.119,0-15.451l12.412-12.412c-28.186-24.954-64.517-40.857-104.404-43.378v17.713
	c0,6.012-4.848,10.925-10.925,10.925c-6.077,0-10.925-4.848-10.925-10.925V22.174c-39.887,2.457-76.218,18.36-104.404,43.378
	L93.22,77.964c4.267,4.267,4.267,11.119,0,15.451c-2.133,2.133-4.978,3.168-7.758,3.168s-5.56-1.099-7.758-3.168L65.293,81.002
	c-24.954,28.186-40.857,64.517-43.378,104.404h17.713c6.012,0,10.925,4.848,10.925,10.925s-4.848,10.925-10.925,10.925H22.174
	c0.905,14.998,3.814,29.414,8.275,43.184h105.697c5.172-28.509,30.125-50.23,60.121-50.23c13.705,0,26.246,4.59,36.461,12.218
	l90.117-82.23c4.461-4.073,11.378-3.685,15.386,0.711c4.073,4.461,3.685,11.378-0.711,15.386l-89.923,81.972
	c4.267,6.659,7.37,14.093,8.727,22.109H362.02c4.461-13.77,7.37-28.186,8.275-43.184L352.646,207.192L352.646,207.192z"/>
<path style="fill:#56ACE0;" d="M196.267,51.071c-84.17,0-152.695,68.461-152.695,152.695c0,9.244,0.84,18.36,2.457,27.345H79.58
	c-2.069-8.986-3.232-18.101-3.232-27.345c0-66.133,53.786-119.919,119.919-119.919c23.467,0,45.446,6.788,64,18.554l14.222-29.673
	C251.539,59.022,224.776,51.071,196.267,51.071z"/>
<path style="fill:#FFC10D;" d="M274.489,72.727L260.267,102.4c33.616,21.269,55.919,58.699,55.919,101.366
	c0,9.244-1.164,18.489-3.232,27.345h33.552c1.616-8.986,2.457-18.166,2.457-27.345C348.962,148.105,318.966,99.362,274.489,72.727z"
	/>
<g>
	<path style="fill:#194F82;" d="M225.552,302.222h-58.57c-6.012,0-10.925,4.848-10.925,10.925c0,6.012,4.848,10.925,10.925,10.925
		h58.57c6.012,0,10.925-4.848,10.925-10.925C236.477,307.071,231.564,302.222,225.552,302.222z"/>
	<path style="fill:#194F82;" d="M225.552,91.345h-58.57c-6.012,0-10.925,4.848-10.925,10.925c0,6.077,4.848,10.925,10.925,10.925
		h58.57c6.012,0,10.925-4.848,10.925-10.925C236.477,96.194,231.564,91.345,225.552,91.345z"/>
</g>
<path style="fill:#56ACE0;" d="M196.267,221.931c-17.907,0-32.97,12.024-37.818,28.444h75.507
	C229.236,233.956,214.174,221.931,196.267,221.931z"/>
<path style="fill:#194F82;" d="M196.267,0C87.984,0,0,87.984,0,196.267s87.984,196.267,196.267,196.267
	s196.267-87.984,196.267-196.267S304.549,0,196.267,0z M196.267,370.747c-68.978,0-128.84-40.275-157.091-98.586h207.321l0,0
	h106.796C325.107,330.473,265.244,370.747,196.267,370.747z M158.448,250.376c4.719-16.356,19.846-28.444,37.818-28.444
	c17.907,0,32.97,12.024,37.818,28.444H158.448z M256.388,250.376c-1.487-8.016-4.461-15.451-8.727-22.109l89.923-82.036
	c4.461-4.073,4.784-10.99,0.711-15.386c-4.008-4.396-10.99-4.784-15.386-0.711l-90.182,82.23
	c-10.214-7.693-22.756-12.218-36.461-12.218c-29.996,0-54.949,21.721-60.121,50.23H30.448c-4.461-13.77-7.37-28.186-8.275-43.184
	h17.713c6.012,0,10.925-4.848,10.925-10.925c0-6.077-4.848-10.925-10.925-10.925H22.174c2.457-39.887,18.36-76.218,43.378-104.404
	L77.964,93.35c2.133,2.133,4.978,3.168,7.758,3.168s5.56-1.099,7.758-3.168c4.267-4.267,4.267-11.119,0-15.451L81.067,65.487
	c28.186-24.889,64.517-40.857,104.404-43.378v17.713c0,6.012,4.848,10.925,10.925,10.925s10.925-4.848,10.925-10.925V22.109
	c39.887,2.457,76.218,18.36,104.404,43.378l-12.606,12.477c-4.267,4.267-4.267,11.119,0,15.451c2.133,2.133,4.913,3.168,7.758,3.168
	s5.56-1.099,7.758-3.168l12.412-12.412c24.954,28.186,40.857,64.517,43.378,104.404h-17.713c-6.012,0-10.925,4.848-10.925,10.925
	s4.849,10.925,10.925,10.925h17.713c-0.905,14.998-3.814,29.414-8.275,43.184H256.388V250.376z"/>
</svg>