<?xml version="1.0" encoding="utf-8"?>
<!-- Svg Vector Icons : http://www.onlinewebfonts.com/icon -->
<!DOCTYPE svg PUBLIC "-//W3C//DTD SVG 1.1//EN" "http://www.w3.org/Graphics/SVG/1.1/DTD/svg11.dtd">
<svg version="1.1" xmlns="http://www.w3.org/2000/svg" xmlns:xlink="http://www.w3.org/1999/xlink" x="0px" y="0px" viewBox="0 0 1000 1000" enable-background="new 0 0 1000 1000" xml:space="preserve">
<metadata> Svg Vector Icons : http://www.onlinewebfonts.com/icon </metadata>
<g><g transform="translate(0.000000,450.000000) scale(0.100000,-0.100000)"><path d="M4547.9,3803.8C2699.2,3627,1100.3,2420.1,425.7,690.5C279.7,313.9,162.5-160.8,120.2-560.5c-26.9-240.2-26.9-828.3,0-1068.5c119.2-1105,611.1-2131.2,1401-2928.8l263.3-265.2h3215.1h3215.1l251.8,255.6c401.6,405.5,659.2,759.1,903.2,1243.4c367.1,724.5,530.4,1410.6,530.4,2215.8c0,816.7-151.8,1472.1-509.3,2194.7c-395.9,799.5-934,1414.4-1679.6,1914.1c-278.7,186.4-724.5,415.1-1028.1,526.6C6037.3,3765.4,5235.9,3869.1,4547.9,3803.8z M5570.3,3431c1391.3-182.6,2588.6-964.7,3326.6-2173.5C9200.5,759.7,9415.7,158.2,9507.9-451c48-322.8,48-968.5,0-1287.6c-148-976.3-565-1821.8-1256.8-2548.3l-161.4-171H4999.5H1911.3l-161.4,169.1c-578.4,601.5-980.1,1322.2-1170.3,2102.4c-98,401.7-123,618.8-123,1081.9c-1.9,478.5,26.9,718.7,132.6,1135.8C1048.4,1835.9,2558.9,3177.3,4413.4,3429C4684.4,3465.6,5291.6,3467.5,5570.3,3431z"/><path d="M4826.6,2479.7v-365.1h173h172.9v365.1v365.1h-172.9h-173V2479.7z"/><path d="M5645.2,925L4955.3-205l-111.5-21.1c-263.3-48-524.6-249.8-638-488.1c-259.4-549.6,82.6-1178,688-1266.4c161.4-23.1,338.2,7.7,503.5,88.4c457.4,224.8,630.3,766.8,388.2,1220.3L5724-556.7l309.4,1301c171,714.9,307.5,1302.9,305.6,1306.8C6335.1,2053.1,6023.8,1545.7,5645.2,925z M5166.7-585.5c124.9-36.5,267.1-163.3,324.8-288.3c92.2-194.1,50-432.4-103.8-591.9c-117.2-121.1-201.8-157.6-378.6-157.6c-134.5,0-167.2,7.7-255.6,55.7c-313.3,174.9-374.7,568.8-130.7,832.1C4772.8-574,4957.2-524,5166.7-585.5z"/><path d="M7472.8,1657.2l-301.7-301.7l124.9-124.9l124.9-124.9l182.6,182.6c99.9,99.9,184.5,176.8,188.3,171c1.9-3.8,40.4-50,84.6-103.8c115.3-142.2,322.9-465.1,418.9-655.3c230.6-449.7,393.9-1045.4,417-1506.7l3.8-105.7l-263.3-5.8l-263.3-5.8v-171v-173H8451h263.3l-11.5-167.2c-25-403.6-165.3-903.2-369-1327.9c-155.6-320.9-278.7-513.1-543.8-845.6c-21.2-26.9-48-7.7-221,165.3l-196,196L7248-3372.1L7123-3497l322.9-320.9l320.9-322.9l117.2,115.3c136.4,134.5,338.2,384.3,472.8,586.1c386.3,578.5,618.8,1224.2,699.5,1941c28.8,253.7,11.5,847.5-30.7,1095.4c-144.1,847.5-488.1,1552.8-1083.9,2225.4c-67.3,75-132.6,138.4-144.1,138.4C7786.1,1960.8,7640,1824.4,7472.8,1657.2z"/><path d="M2232.2,1624.5l-124.9-124.9l201.8-201.8l201.8-201.8l124.9,124.9l124.9,124.9l-201.8,201.8l-201.8,201.8L2232.2,1624.5z"/><path d="M1098.4-1094.8v-173h365.1h365.1v173v173h-365.1h-365.1V-1094.8z"/><path d="M2491.6-3362.4l-288.3-288.3l124.9-124.9l124.9-124.9l288.3,288.3l288.3,288.3l-124.9,124.9l-124.9,124.9L2491.6-3362.4z"/></g></g>
</svg>